<?xml version="1.0" standalone="no"?>
<!DOCTYPE svg PUBLIC "-//W3C//DTD SVG 20010904//EN"
 "http://www.w3.org/TR/2001/REC-SVG-20010904/DTD/svg10.dtd">
<svg version="1.0" xmlns="http://www.w3.org/2000/svg"
 width="1920.000000pt" height="1080.000000pt" viewBox="0 0 1920.000000 1080.000000"
 preserveAspectRatio="xMidYMid meet">

<g transform="translate(0.000000,1080.000000) scale(0.100000,-0.100000)"
fill="#000000" stroke="none">
<path d="M2340 7924 c-14 -3 -65 -12 -115 -20 -116 -19 -279 -74 -375 -125
-201 -109 -318 -235 -389 -418 -59 -152 -123 -565 -142 -915 l-11 -209 -33
-31 c-42 -40 -59 -101 -52 -181 6 -59 20 -102 86 -268 18 -43 34 -106 38 -141
9 -101 -14 -159 -151 -381 -78 -127 -102 -289 -57 -389 31 -72 64 -111 131
-156 141 -95 319 -141 683 -175 l67 -7 0 -32 c0 -57 30 -125 80 -179 91 -100
195 -137 383 -137 178 0 273 30 365 113 52 49 102 145 102 199 l0 37 53 5
c206 21 263 29 350 47 365 74 533 241 488 484 -14 73 -54 160 -127 275 -122
193 -129 272 -43 484 54 131 69 188 69 259 0 68 -18 116 -54 144 -26 21 -26
22 -36 225 -24 502 -102 886 -216 1065 -42 65 -105 113 -151 113 l-33 0 0
-119 c0 -227 -59 -435 -169 -595 -17 -25 -31 -47 -31 -50 0 -3 17 -6 38 -6 42
0 93 -28 117 -63 8 -13 24 -68 36 -123 11 -54 33 -136 48 -181 l28 -82 -41 -5
c-22 -3 -91 -12 -151 -21 -61 -8 -136 -15 -167 -15 -31 0 -81 -5 -110 -11 -68
-14 -185 -68 -221 -102 -40 -36 -116 -60 -164 -51 -47 9 -106 36 -158 73 -77
54 -165 81 -298 91 -116 9 -318 31 -325 36 -6 4 29 67 55 102 35 46 120 99
189 117 32 8 147 19 263 25 322 15 471 45 636 125 69 33 100 55 131 92 159
191 227 381 228 643 1 129 0 137 -26 180 -63 109 -174 179 -354 226 -84 22
-124 27 -269 29 -93 2 -181 1 -195 -1z m-775 -1363 c3 -6 3 -46 -1 -90 -7 -80
-7 -81 -35 -81 -19 0 -30 6 -34 20 -7 21 3 101 16 138 9 22 43 30 54 13z m279
-226 c154 -23 318 -69 476 -131 168 -66 173 -66 323 -4 117 47 264 94 367 115
172 36 456 57 489 36 7 -5 16 -32 19 -59 4 -47 2 -54 -31 -94 -19 -24 -62 -89
-96 -146 -83 -141 -105 -167 -185 -223 -102 -72 -201 -102 -341 -103 -99 -1
-116 2 -165 25 -58 27 -109 79 -163 164 -18 27 -40 51 -49 53 -12 2 -31 -18
-61 -65 -58 -89 -90 -121 -157 -151 -138 -64 -373 -25 -517 85 -70 54 -105 97
-185 233 -31 52 -70 112 -87 134 -36 45 -41 97 -14 135 16 24 17 24 147 18 72
-4 176 -13 230 -22z m-402 -173 c36 -23 59 -55 96 -129 18 -34 40 -64 50 -67
10 -3 25 -19 35 -35 28 -48 133 -138 199 -170 93 -45 178 -64 298 -65 93 -1
111 2 161 25 65 31 120 84 161 157 17 28 36 52 44 52 7 0 23 -19 35 -42 33
-64 113 -143 172 -168 101 -44 293 -33 424 25 56 25 183 110 183 123 0 4 23
32 51 62 27 30 59 75 70 99 43 98 104 151 175 151 55 0 85 -32 92 -98 15 -166
-112 -380 -271 -455 l-73 -35 -33 -88 c-50 -135 -133 -302 -185 -371 -66 -91
-139 -142 -346 -246 l-185 -92 -115 0 -115 0 -175 89 c-204 103 -286 159 -345
238 -53 71 -131 223 -180 353 -43 113 -55 130 -94 138 -46 9 -146 91 -195 160
-63 88 -99 191 -100 285 -1 69 1 75 27 98 34 29 99 32 139 6z m741 -1334 c180
-91 218 -100 354 -88 74 6 92 13 242 88 88 45 166 82 172 82 7 0 8 -7 4 -17
-20 -53 -45 -205 -53 -329 -11 -166 -26 -205 -106 -265 -80 -61 -168 -84 -316
-84 -114 0 -132 3 -205 29 -63 23 -91 41 -131 80 -60 61 -70 94 -79 254 -6 97
-28 233 -51 310 -3 12 -4 22 0 22 3 0 79 -37 169 -82z"/>
<path d="M3105 6230 c-134 -20 -393 -109 -450 -154 -22 -17 -29 -33 -32 -72
-4 -43 -1 -55 29 -98 51 -76 89 -91 228 -91 109 0 119 2 182 32 115 54 198
149 228 261 29 111 -24 146 -185 122z"/>
<path d="M1688 6200 c-26 -26 -30 -36 -25 -66 16 -99 125 -227 240 -284 115
-57 296 -54 375 6 70 54 95 162 47 210 -29 29 -117 70 -230 107 -126 42 -204
57 -293 57 -80 0 -85 -1 -114 -30z"/>
<path d="M1381 6096 c-9 -10 -3 -23 23 -56 33 -42 48 -82 61 -162 7 -43 37
-84 53 -74 38 23 -27 227 -91 287 -25 23 -31 23 -46 5z"/>
<path d="M3535 6086 c-28 -28 -62 -93 -81 -155 -15 -49 -19 -131 -6 -131 27 1
53 47 58 107 5 48 34 115 66 150 20 22 19 53 -2 53 -6 0 -22 -11 -35 -24z"/>
<path d="M2322 5558 c-7 -7 -12 -21 -12 -31 0 -16 5 -19 30 -14 21 5 41 0 65
-14 43 -26 116 -27 152 -3 15 9 42 17 60 16 38 -2 53 19 33 43 -17 21 -64 19
-110 -5 -22 -11 -47 -20 -57 -20 -11 0 -36 9 -58 20 -44 23 -85 26 -103 8z"/>
<path d="M2095 5331 c-14 -13 -1 -34 30 -47 19 -8 72 -48 117 -89 108 -98 152
-120 243 -120 87 0 142 28 250 127 42 37 91 75 111 83 25 10 35 20 32 32 -3
17 -18 18 -183 16 -230 -2 -210 -2 -418 1 -98 1 -180 0 -182 -3z m625 -69 c0
-9 -78 -70 -108 -84 -48 -22 -197 -24 -247 -4 -35 15 -115 74 -115 85 0 3 106
6 235 6 129 0 235 -1 235 -3z m-281 -128 c31 -7 42 -30 18 -40 -21 -8 -67 14
-67 31 0 17 4 18 49 9z"/>
<path d="M4987 7024 c-4 -4 -7 -441 -7 -971 l0 -963 190 0 190 0 -2 968 -3
967 -181 3 c-99 1 -183 -1 -187 -4z"/>
<path d="M6175 7018 c-3 -7 -4 -443 -3 -968 l3 -955 192 -3 192 -2 0 947 c0
522 -3 958 -6 971 -5 22 -7 22 -189 22 -139 0 -186 -3 -189 -12z"/>
<path d="M8287 7024 c-4 -4 -7 -441 -7 -971 l0 -963 190 0 190 0 -2 968 -3
967 -181 3 c-99 1 -183 -1 -187 -4z"/>
<path d="M6800 6035 l0 -945 190 0 190 0 0 40 0 40 46 -30 c78 -49 138 -65
244 -65 169 1 315 61 436 180 208 205 250 548 101 829 -98 183 -305 305 -518
306 -77 0 -204 -34 -258 -70 l-46 -29 -3 344 -2 345 -190 0 -190 0 0 -945z
m724 44 c168 -79 245 -339 156 -527 -58 -122 -152 -192 -260 -192 -74 0 -125
26 -187 93 -76 84 -97 145 -98 282 0 100 3 116 28 169 60 130 148 196 259 196
38 0 74 -7 102 -21z"/>
<path d="M11550 6035 l0 -945 190 0 190 0 0 243 c0 230 1 245 20 262 10 9 26
15 33 12 8 -3 105 -120 216 -261 l202 -256 234 0 c129 0 235 2 235 4 0 3 -40
53 -88 113 -48 59 -186 228 -305 375 -119 147 -217 269 -217 272 0 3 135 118
300 256 165 138 300 253 300 255 0 3 -125 5 -278 5 l-277 0 -178 -155 c-98
-85 -182 -155 -187 -155 -6 0 -10 169 -10 460 l0 460 -190 0 -190 0 0 -945z"/>
<path d="M13000 6035 l0 -945 190 0 190 0 0 40 0 40 46 -30 c80 -50 138 -65
249 -64 218 2 415 112 522 293 129 215 133 479 12 713 -95 182 -306 307 -520
308 -77 0 -204 -34 -258 -70 l-46 -29 -3 344 -2 345 -190 0 -190 0 0 -945z
m726 43 c169 -79 243 -335 153 -528 -56 -121 -151 -190 -259 -190 -74 0 -125
26 -187 93 -76 84 -97 145 -98 282 0 104 2 114 32 175 44 88 83 133 145 164
67 34 148 35 214 4z"/>
<path d="M5695 6916 c-169 -75 -145 -309 38 -357 170 -46 310 144 214 290 -47
71 -169 104 -252 67z"/>
<path d="M17450 6555 l0 -185 -70 0 -70 0 0 -155 0 -155 69 0 69 0 4 -302 c5
-270 7 -312 27 -383 57 -209 178 -297 416 -299 96 -1 118 2 170 24 l60 25 3
153 c1 83 0 152 -3 152 -3 0 -23 -9 -44 -20 -95 -48 -190 -29 -227 46 -17 35
-19 66 -22 322 l-3 282 150 0 151 0 0 155 0 155 -150 0 -150 0 0 185 0 185
-190 0 -190 0 0 -185z"/>
<path d="M9262 6371 c-40 -10 -105 -34 -145 -54 -76 -38 -211 -142 -202 -156
2 -5 65 -43 140 -85 l135 -77 37 30 c91 73 279 66 337 -13 13 -17 27 -45 30
-62 l7 -31 -173 -6 c-110 -3 -195 -11 -233 -22 -155 -41 -270 -127 -327 -243
-28 -57 -33 -78 -36 -162 -8 -198 68 -323 232 -380 73 -25 226 -43 288 -35 71
10 155 40 194 70 45 34 54 32 54 -15 l0 -40 191 0 190 0 -3 488 -3 487 -31 65
c-40 84 -75 124 -148 172 -93 60 -168 79 -326 84 -108 3 -149 0 -208 -15z
m337 -820 c-5 -92 -21 -122 -88 -160 -46 -25 -144 -38 -205 -27 -72 14 -119
83 -102 151 9 37 64 94 100 104 17 5 91 10 165 10 l133 1 -3 -79z"/>
<path d="M10705 6375 c-430 -78 -660 -546 -465 -943 117 -236 367 -376 640
-358 163 10 278 52 407 151 93 70 95 74 42 122 -229 208 -213 196 -229 171
-60 -91 -133 -130 -244 -131 -90 -1 -160 28 -217 90 -69 75 -84 120 -84 253 0
106 2 120 28 172 36 73 110 140 174 159 126 36 265 -7 328 -102 l26 -40 67 60
c198 177 198 177 182 196 -32 39 -170 133 -232 158 -136 54 -280 69 -423 42z"/>
<path d="M14971 6380 c-241 -51 -431 -212 -508 -432 -21 -57 -27 -98 -31 -188
-5 -138 11 -219 66 -330 52 -106 179 -233 282 -283 122 -58 180 -71 315 -71
211 -1 347 53 485 193 134 135 190 269 191 456 1 187 -57 331 -186 461 -134
136 -267 193 -460 200 -60 1 -130 -1 -154 -6z m245 -331 c92 -44 155 -138 175
-261 25 -155 -51 -317 -178 -379 -56 -27 -160 -30 -215 -6 -57 24 -133 101
-158 159 -90 209 1 452 188 505 58 16 133 9 188 -18z"/>
<path d="M16395 6374 c-40 -8 -110 -33 -165 -60 -324 -160 -451 -549 -289
-880 116 -237 374 -380 649 -361 287 21 519 201 602 467 29 95 31 260 4 359
-38 140 -120 264 -227 346 -165 125 -367 170 -574 129z m272 -330 c117 -56
182 -190 170 -350 -13 -179 -136 -308 -291 -308 -164 1 -284 131 -294 320 -14
271 197 443 415 338z"/>
<path d="M5590 5730 l0 -640 190 0 190 0 0 640 0 640 -190 0 -190 0 0 -640z"/>
</g>
</svg>
