<?xml version="1.0" standalone="no"?>
<!DOCTYPE svg PUBLIC "-//W3C//DTD SVG 20010904//EN"
 "http://www.w3.org/TR/2001/REC-SVG-20010904/DTD/svg10.dtd">
<svg version="1.0" xmlns="http://www.w3.org/2000/svg"
 width="334.000000pt" height="403.000000pt" viewBox="0 0 334.000000 403.000000"
 preserveAspectRatio="xMidYMid meet">

<g transform="translate(0.000000,403.000000) scale(0.100000,-0.100000)"
fill="#000000" stroke="none">
<path d="M1457 3884 c-153 -23 -276 -61 -402 -124 -202 -99 -314 -202 -389
-355 -86 -174 -161 -607 -173 -995 l-6 -195 -37 -37 c-77 -75 -76 -197 2 -378
100 -233 94 -309 -44 -528 -92 -147 -117 -218 -118 -333 0 -71 4 -93 25 -136
88 -177 356 -286 762 -311 l108 -7 6 -50 c8 -68 48 -142 102 -192 89 -82 187
-113 355 -113 133 0 196 12 279 52 105 51 176 147 192 257 l6 46 55 2 c272 12
522 74 667 165 197 124 222 334 71 580 -164 266 -170 318 -66 576 77 190 78
311 4 367 l-33 25 -6 198 c-13 422 -87 824 -189 1025 -38 77 -105 144 -153
153 -20 3 -39 4 -42 0 -4 -3 -8 -61 -9 -129 -5 -209 -58 -402 -154 -555 -44
-70 -42 -82 12 -82 30 0 82 -40 102 -79 8 -14 22 -66 31 -116 15 -77 43 -172
70 -237 8 -19 14 -17 -185 -42 -69 -8 -161 -18 -206 -20 -91 -6 -192 -38 -255
-82 -76 -53 -113 -73 -151 -79 -47 -8 -137 17 -175 49 -35 29 -135 80 -188 95
-22 7 -92 16 -155 21 -111 8 -312 31 -318 35 -1 1 5 18 13 38 32 78 123 151
225 182 37 11 125 19 267 25 512 24 720 108 864 350 91 154 131 304 133 510 1
130 0 137 -26 181 -73 124 -220 204 -443 243 -109 19 -306 19 -428 0z m-719
-1360 c5 -10 6 -32 1 -53 -5 -20 -9 -53 -9 -74 0 -37 -1 -38 -32 -35 l-33 3 1
66 c1 37 7 76 13 88 14 25 46 28 59 5z m281 -219 c160 -25 314 -67 472 -130
109 -44 152 -56 179 -52 19 2 88 25 152 51 135 53 208 77 328 105 109 26 320
51 432 51 99 0 108 -6 108 -79 0 -32 -9 -52 -40 -93 -21 -29 -63 -95 -92 -147
-63 -113 -147 -202 -234 -248 -78 -41 -208 -73 -302 -73 -137 0 -231 52 -297
165 -62 106 -75 108 -126 18 -18 -32 -53 -77 -77 -100 -82 -80 -224 -103 -391
-63 -172 42 -266 116 -376 300 -37 63 -83 134 -102 157 -39 48 -46 112 -15
146 16 18 26 19 147 14 72 -4 177 -13 234 -22z m-407 -171 c31 -16 80 -83 108
-149 11 -25 26 -45 33 -45 8 0 27 -18 42 -41 69 -98 194 -181 327 -215 37 -10
106 -17 168 -18 88 -1 113 3 152 21 62 28 131 94 169 159 16 29 34 56 39 59 5
3 29 -25 53 -62 51 -79 101 -126 166 -156 38 -17 65 -21 151 -21 120 0 201 18
300 66 81 39 238 193 270 265 44 100 105 153 175 153 68 -1 95 -36 95 -125 0
-34 -10 -87 -25 -132 -48 -142 -133 -243 -251 -298 l-71 -33 -27 -78 c-39
-111 -126 -290 -174 -360 -78 -114 -135 -156 -377 -275 l-170 -84 -115 0 -115
0 -175 89 c-263 134 -300 162 -384 293 -53 82 -92 164 -146 308 l-38 100 -73
37 c-126 62 -226 192 -264 343 -29 115 -16 177 45 207 35 18 64 16 112 -8z
m1500 -1331 c-22 -82 -42 -237 -42 -324 0 -82 -19 -128 -75 -185 -71 -71 -163
-105 -306 -112 -161 -7 -282 27 -367 103 -64 58 -79 97 -87 231 -7 129 -21
229 -42 302 -8 30 -13 56 -10 58 2 3 83 -34 178 -81 l174 -86 125 3 125 3 170
87 c94 47 172 85 174 83 2 -2 -6 -39 -17 -82z"/>
<path d="M2275 2199 c-70 -11 -218 -51 -295 -81 -114 -44 -167 -76 -180 -108
-27 -65 17 -162 93 -202 37 -20 57 -23 157 -23 111 0 118 1 185 34 84 41 166
120 200 193 31 66 34 147 7 171 -24 22 -91 28 -167 16z"/>
<path d="M863 2176 c-22 -19 -27 -31 -26 -64 5 -113 151 -269 295 -313 68 -21
176 -25 244 -8 88 22 155 120 140 203 -9 46 -51 74 -194 128 -144 54 -251 78
-349 78 -72 0 -85 -3 -110 -24z"/>
<path d="M554 2067 c-3 -8 11 -37 30 -66 19 -28 38 -69 41 -89 3 -20 8 -50 11
-67 2 -16 13 -41 24 -55 15 -20 21 -22 31 -13 29 29 -32 216 -88 276 -30 30
-41 33 -49 14z"/>
<path d="M2705 2056 c-30 -30 -58 -86 -79 -155 -18 -60 -21 -131 -7 -131 19 0
51 54 51 86 0 47 34 132 66 165 16 17 24 34 21 43 -9 22 -24 20 -52 -8z"/>
<path d="M1490 1525 c-20 -24 -4 -48 27 -41 19 4 38 0 58 -14 20 -13 47 -20
80 -20 33 0 60 7 80 20 20 14 39 18 58 14 32 -7 47 17 26 42 -15 18 -52 15
-121 -12 -46 -18 -47 -18 -100 4 -62 26 -91 28 -108 7z"/>
<path d="M1265 1301 c-14 -13 -1 -32 31 -46 19 -8 69 -46 110 -83 105 -97 162
-126 244 -127 86 0 150 32 254 126 44 39 95 78 113 86 23 9 33 19 31 31 -3 15
-20 17 -183 15 -228 -3 -208 -3 -418 0 -98 2 -180 1 -182 -2z m625 -72 c0 -12
-85 -75 -120 -89 -48 -20 -194 -17 -242 4 -36 16 -108 72 -108 85 0 3 106 6
235 6 129 0 235 -3 235 -6z m-264 -129 c25 -10 26 -12 12 -27 -20 -19 -71 -6
-76 20 -4 20 22 22 64 7z"/>
</g>
</svg>
